<?xml version="1.0" encoding="UTF-8" standalone="no"?>
<svg
 xmlns:dc="http://purl.org/dc/elements/1.1/"
 xmlns:cc="http://creativecommons.org/ns#"
 xmlns:rdf="http://www.w3.org/1999/02/22-rdf-syntax-ns#"
 xmlns:svg="http://www.w3.org/2000/svg"
 xmlns="http://www.w3.org/2000/svg"
 id="svg132"
 version="1.2"
 viewBox="0 0 670.24998 374.48643"
 height="374.48642pt"
 width="670.25pt">
<metadata
 id="metadata136">
<rdf:RDF>
<cc:Work
 rdf:about="">
<dc:format>image/svg+xml</dc:format>
<dc:type
 rdf:resource="http://purl.org/dc/dcmitype/StillImage" />
<dc:title></dc:title>
</cc:Work>
</rdf:RDF>
</metadata>
<defs
 id="defs39" />
<g
 id="g582">
<g
 id="g43"
 style="fill:#000000;fill-opacity:1"
 transform="matrix(4.6299416,0,0,4.6299416,-1153.7676,-419.47843)">
<g
 id="use41"
 transform="translate(250.56,147.60001)">
<path
 id="path507"
 d="M 0.796875,0 V -7.15625 H 1.75 v 2.9375 h 3.71875 v -2.9375 H 6.421875 V 0 H 5.46875 V -3.375 H 1.75 V 0 Z m 0,0"
 style="stroke:none" />
</g>
</g>
<g
 id="g47"
 style="fill:#000000;fill-opacity:1"
 transform="matrix(4.6299416,0,0,4.6299416,-1153.7676,-419.47843)">
<g
 id="use45"
 transform="translate(288,126)">
<path
 id="path511"
 d="M 0.796875,0 V -7.15625 H 1.75 v 2.9375 h 3.71875 v -2.9375 H 6.421875 V 0 H 5.46875 V -3.375 H 1.75 V 0 Z m 0,0"
 style="stroke:none" />
</g>
</g>
<g
 id="g51"
 style="fill:#000000;fill-opacity:1"
 transform="matrix(4.6299416,0,0,4.6299416,-1153.7676,-419.47843)">
<g
 id="use49"
 transform="translate(287.76001,169.2)">
<path
 id="path515"
 d="m 0.484375,-3.484375 c 0,-1.1875 0.316406,-2.113281 0.953125,-2.78125 0.632812,-0.675781 1.457031,-1.015625 2.46875,-1.015625 0.664062,0 1.265625,0.15625 1.796875,0.46875 0.53125,0.3125 0.929687,0.757812 1.203125,1.328125 0.28125,0.5625 0.421875,1.203125 0.421875,1.921875 0,0.71875 -0.148437,1.367188 -0.4375,1.9375 -0.292969,0.574219 -0.710937,1.011719 -1.25,1.3125 C 5.109375,-0.0195312 4.53125,0.125 3.90625,0.125 3.226562,0.125 2.625,-0.0351562 2.09375,-0.359375 1.5625,-0.691406 1.160156,-1.140625 0.890625,-1.703125 c -0.273437,-0.5625 -0.40625,-1.15625 -0.40625,-1.78125 z m 0.96875,0.015625 c 0,0.867188 0.234375,1.546875 0.703125,2.046875 0.46875,0.492187 1.050781,0.734375 1.75,0.734375 0.707031,0 1.289062,-0.25 1.75,-0.75 0.46875,-0.5 0.703125,-1.210938 0.703125,-2.140625 0,-0.582031 -0.101563,-1.085937 -0.296875,-1.515625 C 5.863281,-5.53125 5.570312,-5.867188 5.1875,-6.109375 4.8125,-6.347656 4.390625,-6.46875 3.921875,-6.46875 c -0.679687,0 -1.261719,0.230469 -1.75,0.6875 -0.480469,0.460938 -0.71875,1.230469 -0.71875,2.3125 z m 0,0"
 style="stroke:none" />
</g>
</g>
<g
 id="g55"
 style="fill:#000000;fill-opacity:1"
 transform="matrix(4.6299416,0,0,4.6299416,-1153.7676,-419.47843)">
<g
 id="use53"
 transform="translate(280.56,169.2)">
<path
 id="path519"
 d="M 0.796875,0 V -7.15625 H 1.75 v 2.9375 h 3.71875 v -2.9375 H 6.421875 V 0 H 5.46875 V -3.375 H 1.75 V 0 Z m 0,0"
 style="stroke:none" />
</g>
</g>
<g
 id="g59"
 style="fill:#000000;fill-opacity:1"
 transform="matrix(4.6299416,0,0,4.6299416,-1153.7676,-419.47843)">
<g
 id="use57"
 transform="translate(312.48001,126)">
<path
 id="path523"
 d="m 0.484375,-3.484375 c 0,-1.1875 0.316406,-2.113281 0.953125,-2.78125 0.632812,-0.675781 1.457031,-1.015625 2.46875,-1.015625 0.664062,0 1.265625,0.15625 1.796875,0.46875 0.53125,0.3125 0.929687,0.757812 1.203125,1.328125 0.28125,0.5625 0.421875,1.203125 0.421875,1.921875 0,0.71875 -0.148437,1.367188 -0.4375,1.9375 -0.292969,0.574219 -0.710937,1.011719 -1.25,1.3125 C 5.109375,-0.0195312 4.53125,0.125 3.90625,0.125 3.226562,0.125 2.625,-0.0351562 2.09375,-0.359375 1.5625,-0.691406 1.160156,-1.140625 0.890625,-1.703125 c -0.273437,-0.5625 -0.40625,-1.15625 -0.40625,-1.78125 z m 0.96875,0.015625 c 0,0.867188 0.234375,1.546875 0.703125,2.046875 0.46875,0.492187 1.050781,0.734375 1.75,0.734375 0.707031,0 1.289062,-0.25 1.75,-0.75 0.46875,-0.5 0.703125,-1.210938 0.703125,-2.140625 0,-0.582031 -0.101563,-1.085937 -0.296875,-1.515625 C 5.863281,-5.53125 5.570312,-5.867188 5.1875,-6.109375 4.8125,-6.347656 4.390625,-6.46875 3.921875,-6.46875 c -0.679687,0 -1.261719,0.230469 -1.75,0.6875 -0.480469,0.460938 -0.71875,1.230469 -0.71875,2.3125 z m 0,0"
 style="stroke:none" />
</g>
</g>
<g
 id="g63"
 style="fill:#000000;fill-opacity:1"
 transform="matrix(4.6299416,0,0,4.6299416,-1153.7676,-419.47843)">
<g
 id="use61"
 transform="translate(320.39999,126)">
<path
 id="path527"
 d="M 0.796875,0 V -7.15625 H 1.75 v 2.9375 h 3.71875 v -2.9375 H 6.421875 V 0 H 5.46875 V -3.375 H 1.75 V 0 Z m 0,0"
 style="stroke:none" />
</g>
</g>
<path
 id="path65"
 d="M 138.63717,178.34468 80.907584,211.67664"
 style="fill:none;stroke:#000000;stroke-width:3.33356;stroke-linecap:round;stroke-linejoin:round;stroke-miterlimit:10;stroke-opacity:1" />
<path
 id="path67"
 d="m 138.63717,178.34468 v -66.682"
 style="fill:none;stroke:#000000;stroke-width:3.33356;stroke-linecap:round;stroke-linejoin:round;stroke-miterlimit:10;stroke-opacity:1" />
<path
 id="path69"
 d="M 80.907584,211.67664 23.159943,178.34468"
 style="fill:none;stroke:#000000;stroke-width:3.33356;stroke-linecap:round;stroke-linejoin:round;stroke-miterlimit:10;stroke-opacity:1" />
<path
 id="path71"
 d="M 138.63717,111.66268 80.907584,78.330715"
 style="fill:none;stroke:#000000;stroke-width:3.33356;stroke-linecap:round;stroke-linejoin:round;stroke-miterlimit:10;stroke-opacity:1" />
<path
 id="path73"
 d="M 125.16334,118.01075 82.155539,93.142917"
 style="fill:none;stroke:#000000;stroke-width:3.33356;stroke-linecap:round;stroke-linejoin:round;stroke-miterlimit:10;stroke-opacity:1" />
<path
 id="path75"
 d="m 23.159943,178.34468 v -66.682"
 style="fill:none;stroke:#000000;stroke-width:3.33356;stroke-linecap:round;stroke-linejoin:round;stroke-miterlimit:10;stroke-opacity:1" />
<path
 id="path77"
 d="M 80.907584,78.330715 23.159943,111.66268"
 style="fill:none;stroke:#000000;stroke-width:3.33356;stroke-linecap:round;stroke-linejoin:round;stroke-miterlimit:10;stroke-opacity:1" />
<path
 id="path79"
 d="m 80.907584,211.67664 v 66.66394"
 style="fill:none;stroke:#000000;stroke-width:3.33356;stroke-linecap:round;stroke-linejoin:round;stroke-miterlimit:10;stroke-opacity:1" />
<path
 id="path81"
 d="M 80.907584,278.34058 23.159943,311.69065"
 style="fill:none;stroke:#000000;stroke-width:3.33356;stroke-linecap:round;stroke-linejoin:round;stroke-miterlimit:10;stroke-opacity:1" />
<path
 id="path83"
 d="m 80.907584,278.34058 57.729586,33.35007"
 style="fill:none;stroke:#000000;stroke-width:3.33356;stroke-linecap:round;stroke-linejoin:round;stroke-miterlimit:10;stroke-opacity:1" />
<path
 id="path85"
 d="m 94.363352,272.01057 50.386818,29.06376"
 style="fill:none;stroke:#000000;stroke-width:3.33356;stroke-linecap:round;stroke-linejoin:round;stroke-miterlimit:10;stroke-opacity:1" />
<path
 id="path87"
 d="m 80.907584,211.67664 -39.047029,17.30802 2.224548,3.8523 2.224548,3.88841 z m 0,0"
 style="fill:#000000;fill-opacity:1;fill-rule:evenodd;stroke:#000000;stroke-width:1.11119;stroke-linecap:round;stroke-linejoin:round;stroke-miterlimit:10;stroke-opacity:1" />
<path
 id="path89"
 d="m 171.82445,163.56868 -3.79799,-6.61938"
 style="fill:none;stroke:#000000;stroke-width:3.33356;stroke-linecap:round;stroke-linejoin:round;stroke-miterlimit:10;stroke-opacity:1" />
<path
 id="path91"
 d="m 160.57517,168.57842 -2.49586,-4.35868"
 style="fill:none;stroke:#000000;stroke-width:3.33356;stroke-linecap:round;stroke-linejoin:round;stroke-miterlimit:10;stroke-opacity:1" />
<path
 id="path93"
 d="m 149.38011,173.57005 -1.2479,-2.13408"
 style="fill:none;stroke:#000000;stroke-width:3.33356;stroke-linecap:round;stroke-linejoin:round;stroke-miterlimit:10;stroke-opacity:1" />
<path
 id="path95"
 d="M 254.09634,245.00861 138.63717,178.34468"
 style="fill:none;stroke:#000000;stroke-width:3.33356;stroke-linecap:round;stroke-linejoin:round;stroke-miterlimit:10;stroke-opacity:1" />
<path
 id="path97"
 d="m 254.09634,245.00861 57.74768,-33.33197"
 style="fill:none;stroke:#000000;stroke-width:3.33356;stroke-linecap:round;stroke-linejoin:round;stroke-miterlimit:10;stroke-opacity:1" />
<path
 id="path99"
 d="m 254.09634,245.00861 v 66.68204"
 style="fill:none;stroke:#000000;stroke-width:3.33356;stroke-linecap:round;stroke-linejoin:round;stroke-miterlimit:10;stroke-opacity:1" />
<path
 id="path101"
 d="m 266.3223,253.52701 v 49.6814"
 style="fill:none;stroke:#000000;stroke-width:3.33356;stroke-linecap:round;stroke-linejoin:round;stroke-miterlimit:10;stroke-opacity:1" />
<path
 id="path103"
 d="m 311.84402,211.67664 57.72959,33.33197"
 style="fill:none;stroke:#000000;stroke-width:3.33356;stroke-linecap:round;stroke-linejoin:round;stroke-miterlimit:10;stroke-opacity:1" />
<path
 id="path105"
 d="m 313.09193,226.54311 43.00781,24.81362"
 style="fill:none;stroke:#000000;stroke-width:3.33356;stroke-linecap:round;stroke-linejoin:round;stroke-miterlimit:10;stroke-opacity:1" />
<path
 id="path107"
 d="m 254.09634,311.69065 57.74768,33.33192"
 style="fill:none;stroke:#000000;stroke-width:3.33356;stroke-linecap:round;stroke-linejoin:round;stroke-miterlimit:10;stroke-opacity:1" />
<path
 id="path109"
 d="m 369.57361,245.00861 v 66.68204"
 style="fill:none;stroke:#000000;stroke-width:3.33356;stroke-linecap:round;stroke-linejoin:round;stroke-miterlimit:10;stroke-opacity:1" />
<path
 id="path111"
 d="m 311.84402,345.02257 57.72959,-33.33192"
 style="fill:none;stroke:#000000;stroke-width:3.33356;stroke-linecap:round;stroke-linejoin:round;stroke-miterlimit:10;stroke-opacity:1" />
<path
 id="path113"
 d="m 313.09193,330.21042 43.00781,-24.86788"
 style="fill:none;stroke:#000000;stroke-width:3.33356;stroke-linecap:round;stroke-linejoin:round;stroke-miterlimit:10;stroke-opacity:1" />
<path
 id="path115"
 d="m 254.09634,311.69065 -34.43519,19.89426"
 style="fill:none;stroke:#000000;stroke-width:3.33356;stroke-linecap:round;stroke-linejoin:round;stroke-miterlimit:10;stroke-opacity:1" />
<path
 id="path117"
 d="M 311.84402,211.67664 V 172.85787"
 style="fill:none;stroke:#000000;stroke-width:3.33356;stroke-linecap:round;stroke-linejoin:round;stroke-miterlimit:10;stroke-opacity:1" />
<path
 id="path119"
 d="m 369.57361,311.69065 57.87427,33.33192"
 style="fill:none;stroke:#000000;stroke-width:3.33356;stroke-linecap:round;stroke-linejoin:round;stroke-miterlimit:10;stroke-opacity:1" />
<path
 id="path121"
 d="m 427.44788,345.02257 57.78385,-33.33192"
 style="fill:none;stroke:#000000;stroke-width:3.33356;stroke-linecap:round;stroke-linejoin:round;stroke-miterlimit:10;stroke-opacity:1" />
<path
 id="path123"
 d="m 485.23173,311.69065 57.78384,33.33192"
 style="fill:none;stroke:#000000;stroke-width:3.33356;stroke-linecap:round;stroke-linejoin:round;stroke-miterlimit:10;stroke-opacity:1" />
<path
 id="path125"
 d="m 543.01557,345.02257 57.78385,-33.33192"
 style="fill:none;stroke:#000000;stroke-width:3.33356;stroke-linecap:round;stroke-linejoin:round;stroke-miterlimit:10;stroke-opacity:1" />
<path
 id="path127"
 d="m 600.79942,311.69065 57.78385,33.33192"
 style="fill:none;stroke:#000000;stroke-width:3.33356;stroke-linecap:round;stroke-linejoin:round;stroke-miterlimit:10;stroke-opacity:1" />
<path
 id="path129"
 d="M 80.907584,78.330715 V 11.666778"
 style="fill:none;stroke:#000000;stroke-width:3.33356;stroke-linecap:round;stroke-linejoin:round;stroke-miterlimit:10;stroke-opacity:1" />
</g>
</svg>
